<svg width="32" height="32" viewBox="0 0 32 32" fill="none" xmlns="http://www.w3.org/2000/svg">
<g id="ArrowFatLineDown">
<g id="Group 4">
<path id="sk-bg--vector" opacity="0.8" d="M16.6788 27.8212L26.3612 18.1388C26.8752 17.6248 27.1323 17.3677 27.1496 17.1471C27.1647 16.9556 27.0872 16.7685 26.9411 16.6438C26.7728 16.5 26.4093 16.5 25.6824 16.5H21.96C21.624 16.5 21.456 16.5 21.3276 16.4346C21.2147 16.3771 21.1229 16.2853 21.0654 16.1724C21 16.044 21 15.876 21 15.54V9.46C21 9.12397 21 8.95595 20.9346 8.82761C20.8771 8.71471 20.7853 8.62292 20.6724 8.5654C20.544 8.5 20.376 8.5 20.04 8.5H11.96C11.624 8.5 11.456 8.5 11.3276 8.5654C11.2147 8.62292 11.1229 8.71471 11.0654 8.82761C11 8.95595 11 9.12397 11 9.46V15.54C11 15.876 11 16.044 10.9346 16.1724C10.8771 16.2853 10.7853 16.3771 10.6724 16.4346C10.544 16.5 10.376 16.5 10.04 16.5H6.31765C5.59067 16.5 5.22718 16.5 5.05886 16.6438C4.91281 16.7685 4.83531 16.9556 4.85038 17.1471C4.86774 17.3677 5.12477 17.6248 5.63882 18.1388L15.3212 27.8212C15.5588 28.0588 15.6776 28.1776 15.8146 28.2221C15.9351 28.2613 16.0649 28.2613 16.1854 28.2221C16.3224 28.1776 16.4412 28.0588 16.6788 27.8212Z" fill="black"/>
<path id="sk-line--vector" d="M16.4243 28.0757L26.9757 17.5243C27.3537 17.1463 27.086 16.5 26.5515 16.5H21.6C21.2686 16.5 21 16.2314 21 15.9V9.1C21 8.76863 20.7314 8.5 20.4 8.5H11.6C11.2686 8.5 11 8.76863 11 9.1V15.9C11 16.2314 10.7314 16.5 10.4 16.5H5.44853C4.91399 16.5 4.64629 17.1463 5.02426 17.5243L15.5757 28.0757C15.8101 28.3101 16.1899 28.3101 16.4243 28.0757Z" stroke="black" stroke-width="0.6" stroke-linecap="round" stroke-linejoin="round"/>
<path id="sk-line--vector-23" d="M11 4.5H21" stroke="black" stroke-width="0.6" stroke-linecap="round" stroke-linejoin="round"/>
</g>
</g>
</svg>
