<svg width="32" height="32" viewBox="0 0 32 32" fill="none" xmlns="http://www.w3.org/2000/svg">
<path d="M28.1284 16.4054L18.5423 26.863C18.1725 27.2663 17.5 27.0047 17.5 26.4575V21.6C17.5 21.2686 17.2314 21 16.9 21H14.1C13.7686 21 13.5 20.7314 13.5 20.4V11.6C13.5 11.2686 13.7686 11 14.1 11H16.9C17.2314 11 17.5 10.7314 17.5 10.4V5.54248C17.5 4.99528 18.1725 4.73367 18.5423 5.13705L28.1284 15.5946C28.3386 15.824 28.3386 16.176 28.1284 16.4054Z" stroke="black" stroke-width="0.6" stroke-linecap="round" stroke-linejoin="round"/>
<path d="M4.5 11V21" stroke="black" stroke-width="0.6" stroke-linecap="round" stroke-linejoin="round"/>
<path d="M9 11V21" stroke="black" stroke-width="0.6" stroke-linecap="round" stroke-linejoin="round"/>
</svg>
