<svg width="32" height="32" viewBox="0 0 32 32" fill="none" xmlns="http://www.w3.org/2000/svg">
<path d="M24.1777 11.8186L20.6019 15.3943C20.3676 15.6287 20.3676 16.0086 20.6019 16.2429L24.1777 19.8186" stroke="black" stroke-width="0.6" stroke-linecap="round" stroke-linejoin="round"/>
<path d="M20.6777 15.8186H28.1777" stroke="black" stroke-width="0.6" stroke-linecap="round" stroke-linejoin="round"/>
<path d="M20.152 7.79297L16.5762 11.3687C16.3419 11.603 15.962 11.603 15.7277 11.3687L12.152 7.79297" stroke="black" stroke-width="0.6" stroke-linecap="round" stroke-linejoin="round"/>
<path d="M16.152 11.293V3.79297" stroke="black" stroke-width="0.6" stroke-linecap="round" stroke-linejoin="round"/>
<path d="M11.8186 24.1776L15.3943 20.6019C15.6287 20.3676 16.0086 20.3676 16.2429 20.6019L19.8186 24.1776" stroke="black" stroke-width="0.6" stroke-linecap="round" stroke-linejoin="round"/>
<path d="M15.8186 20.6776V28.1776" stroke="black" stroke-width="0.6" stroke-linecap="round" stroke-linejoin="round"/>
<path d="M7.79291 20.152L11.3686 16.5762C11.603 16.3419 11.603 15.962 11.3686 15.7277L7.79291 12.152" stroke="black" stroke-width="0.6" stroke-linecap="round" stroke-linejoin="round"/>
<path d="M11.2929 16.152H3.79291" stroke="black" stroke-width="0.6" stroke-linecap="round" stroke-linejoin="round"/>
</svg>
