<svg width="32" height="32" viewBox="0 0 32 32" fill="none" xmlns="http://www.w3.org/2000/svg">
<g id="ArrowFatDown">
<g id="Group 4">
<path id="sk-bg--vector" opacity="0.8" d="M16.6788 27.3212L26.3612 17.6388C26.8752 17.1248 27.1323 16.8677 27.1496 16.6471C27.1647 16.4556 27.0872 16.2685 26.9411 16.1438C26.7728 16 26.4093 16 25.6824 16H21.96C21.624 16 21.456 16 21.3276 15.9346C21.2147 15.8771 21.1229 15.7853 21.0654 15.6724C21 15.544 21 15.376 21 15.04V4.96C21 4.62397 21 4.45595 20.9346 4.32761C20.8771 4.21471 20.7853 4.12292 20.6724 4.0654C20.544 4 20.376 4 20.04 4H11.96C11.624 4 11.456 4 11.3276 4.0654C11.2147 4.12292 11.1229 4.21471 11.0654 4.32761C11 4.45595 11 4.62397 11 4.96V15.04C11 15.376 11 15.544 10.9346 15.6724C10.8771 15.7853 10.7853 15.8771 10.6724 15.9346C10.544 16 10.376 16 10.04 16H6.31765C5.59067 16 5.22718 16 5.05886 16.1438C4.91281 16.2685 4.83531 16.4556 4.85038 16.6471C4.86774 16.8677 5.12477 17.1248 5.63882 17.6388L15.3212 27.3212C15.5588 27.5588 15.6776 27.6776 15.8146 27.7221C15.9351 27.7613 16.0649 27.7613 16.1854 27.7221C16.3224 27.6776 16.4412 27.5588 16.6788 27.3212Z" fill="black"/>
<path id="sk-line--vector" d="M16.4243 27.5757L26.9757 17.0243C27.3537 16.6463 27.086 16 26.5515 16H21.6C21.2686 16 21 15.7314 21 15.4V4.6C21 4.26863 20.7314 4 20.4 4H11.6C11.2686 4 11 4.26863 11 4.6V15.4C11 15.7314 10.7314 16 10.4 16H5.44853C4.91399 16 4.64629 16.6463 5.02426 17.0243L15.5757 27.5757C15.8101 27.8101 16.1899 27.8101 16.4243 27.5757Z" stroke="black" stroke-width="0.6" stroke-linecap="round" stroke-linejoin="round"/>
</g>
</g>
</svg>
