<svg width="32" height="32" viewBox="0 0 32 32" fill="none" xmlns="http://www.w3.org/2000/svg">
<path d="M16.4054 3.87165L26.863 13.4577C27.2663 13.8275 27.0047 14.5 26.4575 14.5H21.6C21.2686 14.5 21 14.7686 21 15.1V17.9C21 18.2314 20.7314 18.5 20.4 18.5H11.6C11.2686 18.5 11 18.2314 11 17.9V15.1C11 14.7686 10.7314 14.5 10.4 14.5H5.54248C4.99528 14.5 4.73367 13.8275 5.13705 13.4577L15.5946 3.87165C15.824 3.66137 16.176 3.66137 16.4054 3.87165Z" stroke="black" stroke-width="0.6" stroke-linecap="round" stroke-linejoin="round"/>
<path d="M11 27.5H21" stroke="black" stroke-width="0.6" stroke-linecap="round" stroke-linejoin="round"/>
<path d="M11 23H21" stroke="black" stroke-width="0.6" stroke-linecap="round" stroke-linejoin="round"/>
</svg>
