<svg width="32" height="32" viewBox="0 0 32 32" fill="none" xmlns="http://www.w3.org/2000/svg">
<path opacity="0.1" d="M27 23.8C27 24.9201 27 25.4802 26.782 25.908C26.5903 26.2843 26.2843 26.5903 25.908 26.782C25.4802 27 24.9201 27 23.8 27H8.2C7.0799 27 6.51984 27 6.09202 26.782C5.71569 26.5903 5.40973 26.2843 5.21799 25.908C5 25.4802 5 24.9201 5 23.8V8.2C5 7.0799 5 6.51984 5.21799 6.09202C5.40973 5.71569 5.71569 5.40973 6.09202 5.21799C6.51984 5 7.0799 5 8.2 5H23.8C24.9201 5 25.4802 5 25.908 5.21799C26.2843 5.40973 26.5903 5.71569 26.782 6.09202C27 6.51984 27 7.0799 27 8.2V23.8Z" fill="black"/>
<path d="M24.1777 11.8186L20.6019 15.3943C20.3676 15.6287 20.3676 16.0086 20.6019 16.2429L24.1777 19.8186" stroke="black" stroke-width="0.6" stroke-linecap="round" stroke-linejoin="round"/>
<path d="M20.6777 15.8186H28.1777" stroke="black" stroke-width="0.6" stroke-linecap="round" stroke-linejoin="round"/>
<path d="M20.152 7.79291L16.5763 11.3686C16.3419 11.603 15.962 11.603 15.7277 11.3686L12.152 7.79291" stroke="black" stroke-width="0.6" stroke-linecap="round" stroke-linejoin="round"/>
<path d="M16.152 11.2929V3.79291" stroke="black" stroke-width="0.6" stroke-linecap="round" stroke-linejoin="round"/>
<path d="M11.8186 24.1777L15.3943 20.6019C15.6286 20.3676 16.0085 20.3676 16.2429 20.6019L19.8186 24.1777" stroke="black" stroke-width="0.6" stroke-linecap="round" stroke-linejoin="round"/>
<path d="M15.8186 20.6777V28.1777" stroke="black" stroke-width="0.6" stroke-linecap="round" stroke-linejoin="round"/>
<path d="M7.79291 20.152L11.3686 16.5762C11.603 16.3419 11.603 15.962 11.3686 15.7277L7.79291 12.152" stroke="black" stroke-width="0.6" stroke-linecap="round" stroke-linejoin="round"/>
<path d="M11.2929 16.152H3.79291" stroke="black" stroke-width="0.6" stroke-linecap="round" stroke-linejoin="round"/>
</svg>
