<svg width="32" height="32" viewBox="0 0 32 32" fill="none" xmlns="http://www.w3.org/2000/svg">
<path d="M19.6534 13.7607V18.8176C19.6534 19.149 19.3848 19.4176 19.0534 19.4176H13.9965" stroke="black" stroke-width="0.6" stroke-linecap="round" stroke-linejoin="round"/>
<path d="M19.2998 19.064L12.5823 12.3465" stroke="black" stroke-width="0.6" stroke-linecap="round" stroke-linejoin="round"/>
<path d="M15.8333 3.99999C18.2067 3.99999 20.5268 4.70378 22.5002 6.02236C24.4735 7.34094 26.0116 9.21508 26.9199 11.4078C27.8281 13.6005 28.0658 16.0133 27.6027 18.3411C27.1397 20.6688 25.9968 22.807 24.3186 24.4853C22.6404 26.1635 20.5022 27.3064 18.1744 27.7694C15.8466 28.2324 13.4338 27.9948 11.2411 27.0865C9.0484 26.1783 7.17425 24.6402 5.85568 22.6668C4.5371 20.6934 3.83331 18.3734 3.83331 16C3.83331 12.8174 5.09759 9.76515 7.34803 7.51471C9.59847 5.26428 12.6507 3.99999 15.8333 3.99999Z" stroke="black" stroke-width="0.6" stroke-linecap="round" stroke-linejoin="round"/>
</svg>
