<svg width="32" height="32" viewBox="0 0 32 32" fill="none" xmlns="http://www.w3.org/2000/svg">
<g id="AstroBoxLogo">
<path id="sk-line--vector" d="M28 16C28 18.3734 27.2962 20.6935 25.9776 22.6668C24.6591 24.6402 22.7849 26.1783 20.5922 27.0866C18.3995 27.9948 15.9867 28.2324 13.6589 27.7694C11.3312 27.3064 9.19295 26.1635 7.51472 24.4853C5.83649 22.8071 4.6936 20.6689 4.23058 18.3411C3.76756 16.0133 4.0052 13.6005 4.91345 11.4078C5.8217 9.21509 7.35977 7.34094 9.33316 6.02236C11.3066 4.70379 13.6266 4 16 4C19.1826 4 22.2349 5.26428 24.4853 7.51472C26.7357 9.76516 28 12.8174 28 16Z" stroke="black" stroke-width="0.6"/>
<path id="sk-line--sk-line-vector-2" d="M25 4C25.5645 4.42342 26.1017 4.88856 26.6065 5.3934C27.075 5.86189 27.5093 6.35818 27.9078 6.87839" stroke="black" stroke-width="0.6" stroke-linecap="round"/>
<path id="sk-line--sk-line-vector-3" d="M25 16C25 17.78 24.4722 19.5201 23.4832 21.0001C22.4943 22.4802 21.0887 23.6337 19.4442 24.3149C17.7996 24.9961 15.99 25.1743 14.2442 24.8271C12.4984 24.4798 10.8947 23.6226 9.63604 22.364C8.37737 21.1053 7.5202 19.5016 7.17294 17.7558C6.82567 16.01 7.0039 14.2004 7.68509 12.5558C8.36628 10.9113 9.51983 9.50571 10.9999 8.51677C12.4799 7.52784 14.22 7 16 7C18.3869 7 20.6761 7.94821 22.364 9.63604C24.0518 11.3239 25 13.6131 25 16Z" stroke="black" stroke-width="0.6"/>
<path id="sk-bg--subtract" opacity="0.8" d="M16 7C18.3869 7.00001 20.6764 7.94793 22.3643 9.63574C24.0521 11.3236 25 13.6131 25 16C25 17.78 24.4722 19.52 23.4834 21C22.4945 22.4799 21.0887 23.6332 19.4443 24.3145C17.7998 24.9956 15.99 25.1744 14.2441 24.8271C12.4983 24.4799 10.8944 23.6229 9.63574 22.3643C8.37708 21.1056 7.52012 19.5017 7.17285 17.7559C6.82559 16.01 7.00338 14.2002 7.68457 12.5557C8.36576 10.9111 9.51996 9.50553 11 8.5166C12.48 7.52776 14.2201 7 16 7ZM16.416 10.1045C16.1308 9.96541 15.797 9.96552 15.5117 10.1045C15.1835 10.2645 14.9446 10.7751 14.4678 11.7969L13.8721 13.0742C13.7782 13.2755 13.7311 13.3764 13.666 13.4629C13.6082 13.5396 13.5396 13.6082 13.4629 13.666C13.3764 13.7312 13.2754 13.7782 13.0742 13.8721L11.7969 14.4678C10.7751 14.9446 10.2646 15.1835 10.1045 15.5117C9.96541 15.7971 9.96537 16.1307 10.1045 16.416C10.2649 16.7439 10.7758 16.9825 11.7969 17.459L13.0742 18.0557C13.2753 18.1495 13.3765 18.1966 13.4629 18.2617C13.5394 18.3195 13.6083 18.3883 13.666 18.4648C13.7309 18.5512 13.7783 18.6527 13.8721 18.8535L14.4678 20.1299C14.9446 21.1516 15.1835 21.6632 15.5117 21.8232C15.7969 21.9621 16.1309 21.9623 16.416 21.8232C16.7441 21.663 16.9823 21.1514 17.459 20.1299L18.0557 18.8535C18.1496 18.6523 18.1966 18.5513 18.2617 18.4648C18.3196 18.3881 18.3881 18.3195 18.4648 18.2617C18.5513 18.1967 18.6524 18.1495 18.8535 18.0557L20.1299 17.459C21.1515 16.9822 21.6631 16.7442 21.8232 16.416C21.9623 16.1308 21.9621 15.7969 21.8232 15.5117C21.6632 15.1835 21.1515 14.9446 20.1299 14.4678L18.8535 13.8721C18.6527 13.7783 18.5512 13.7309 18.4648 13.666C18.3883 13.6083 18.3195 13.5395 18.2617 13.4629C18.1966 13.3764 18.1495 13.2753 18.0557 13.0742L17.459 11.7969C16.9825 10.776 16.7439 10.2649 16.416 10.1045Z" fill="black"/>
<g id="Group 427321329">
<path id="sk-line--subtract" opacity="0.1" d="M15.5117 10.1045L15.3803 9.83481L15.3802 9.83484L15.5117 10.1045ZM16.416 10.1045L16.5476 9.83491L16.5475 9.83484L16.416 10.1045ZM17.46 11.7969L17.7318 11.6701L17.7318 11.67L17.46 11.7969ZM18.0557 13.0742L17.7838 13.201L17.7838 13.2011L18.0557 13.0742ZM18.2617 13.4629L18.0221 13.6435L18.0222 13.6435L18.2617 13.4629ZM18.4648 13.666L18.2843 13.9056L18.2844 13.9057L18.4648 13.666ZM18.8535 13.8721L18.9804 13.6002L18.9804 13.6002L18.8535 13.8721ZM20.1299 14.4678L20.003 14.7396L20.003 14.7396L20.1299 14.4678ZM21.8232 15.5117L22.0929 15.3803L22.0929 15.3802L21.8232 15.5117ZM21.8232 16.416L22.0929 16.5475L22.0929 16.5475L21.8232 16.416ZM20.1299 17.46L20.003 17.1881L20.003 17.1881L20.1299 17.46ZM18.8535 18.0557L18.9804 18.3275L18.9804 18.3275L18.8535 18.0557ZM18.4648 18.2617L18.2844 18.0221L18.2843 18.0222L18.4648 18.2617ZM18.2617 18.4648L18.0222 18.2843L18.0221 18.2843L18.2617 18.4648ZM18.0557 18.8535L18.3275 18.9804L18.3275 18.9804L18.0557 18.8535ZM17.46 20.1299L17.1881 20.003L17.1881 20.003L17.46 20.1299ZM16.416 21.8232L16.5475 22.0929L16.5476 22.0928L16.416 21.8232ZM15.5117 21.8232L15.3802 22.0929L15.3803 22.0929L15.5117 21.8232ZM14.4678 20.1299L14.7396 20.003L14.7396 20.003L14.4678 20.1299ZM13.8721 18.8535L13.6002 18.9804L13.6002 18.9804L13.8721 18.8535ZM13.666 18.4648L13.9057 18.2844L13.9056 18.2843L13.666 18.4648ZM13.4629 18.2617L13.6435 18.0222L13.6435 18.0222L13.4629 18.2617ZM13.0742 18.0557L13.2011 17.7838L13.201 17.7838L13.0742 18.0557ZM11.7969 17.46L11.67 17.7318L11.6701 17.7318L11.7969 17.46ZM10.1045 16.416L9.83484 16.5475L9.83489 16.5476L10.1045 16.416ZM10.1045 15.5117L9.83485 15.3802L9.83484 15.3802L10.1045 15.5117ZM11.7969 14.4678L11.6701 14.1959L11.67 14.1959L11.7969 14.4678ZM13.0742 13.8721L13.201 14.144L13.2011 14.1439L13.0742 13.8721ZM13.4629 13.666L13.6434 13.9056L13.6435 13.9056L13.4629 13.666ZM13.666 13.4629L13.9056 13.6435L13.9056 13.6434L13.666 13.4629ZM13.8721 13.0742L14.1439 13.2011L14.144 13.201L13.8721 13.0742ZM14.4678 11.7969L14.1959 11.67L14.1959 11.6701L14.4678 11.7969ZM15.5117 10.1045L15.6431 10.3742C15.8456 10.2755 16.0822 10.2755 16.2845 10.3741L16.416 10.1045L16.5475 9.83484C16.1792 9.65525 15.7485 9.65535 15.3803 9.83481L15.5117 10.1045ZM16.416 10.1045L16.2844 10.3741C16.3637 10.4128 16.468 10.5124 16.623 10.7787C16.7749 11.0395 16.9473 11.4077 17.1881 11.9237L17.46 11.7969L17.7318 11.67C17.4959 11.1646 17.3104 10.7667 17.1415 10.4767C16.9758 10.1922 16.7964 9.95638 16.5476 9.83491L16.416 10.1045ZM17.46 11.7969L17.1881 11.9237L17.7838 13.201L18.0557 13.0742L18.3276 12.9474L17.7318 11.6701L17.46 11.7969ZM18.0557 13.0742L17.7838 13.2011C17.8724 13.3908 17.9336 13.5259 18.0221 13.6435L18.2617 13.4629L18.5013 13.2823C18.4595 13.2269 18.4269 13.1603 18.3275 12.9473L18.0557 13.0742ZM18.2617 13.4629L18.0222 13.6435C18.0968 13.7425 18.1852 13.8309 18.2843 13.9056L18.4648 13.666L18.6454 13.4264C18.591 13.3854 18.5423 13.3367 18.5013 13.2823L18.2617 13.4629ZM18.4648 13.666L18.2844 13.9057C18.4018 13.994 18.537 14.0554 18.7266 14.1439L18.8535 13.8721L18.9804 13.6002C18.7678 13.501 18.7008 13.4681 18.6453 13.4263L18.4648 13.666ZM18.8535 13.8721L18.7266 14.1439L20.003 14.7396L20.1299 14.4678L20.2568 14.1959L18.9804 13.6002L18.8535 13.8721ZM20.1299 14.4678L20.003 14.7396C20.5193 14.9806 20.8878 15.1529 21.1489 15.3048C21.4154 15.4599 21.515 15.564 21.5536 15.6432L21.8232 15.5117L22.0929 15.3802C21.9714 15.1311 21.7352 14.9518 21.4506 14.7862C21.1604 14.6174 20.7623 14.4318 20.2568 14.1959L20.1299 14.4678ZM21.8232 15.5117L21.5536 15.6431C21.6522 15.8455 21.6522 16.0823 21.5536 16.2846L21.8232 16.416L22.0929 16.5475C22.2725 16.1792 22.2724 15.7485 22.0929 15.3803L21.8232 15.5117ZM21.8232 16.416L21.5536 16.2845C21.515 16.3637 21.4154 16.4679 21.1489 16.6229C20.8878 16.7748 20.5193 16.9471 20.003 17.1881L20.1299 17.46L20.2568 17.7318C20.7623 17.4959 21.1604 17.3104 21.4506 17.1416C21.7352 16.976 21.9714 16.7966 22.0929 16.5475L21.8232 16.416ZM20.1299 17.46L20.003 17.1881L18.7266 17.7838L18.8535 18.0557L18.9804 18.3275L20.2568 17.7318L20.1299 17.46ZM18.8535 18.0557L18.7266 17.7838C18.5369 17.8724 18.4018 17.9337 18.2844 18.0221L18.4648 18.2617L18.6453 18.5014C18.7008 18.4596 18.7677 18.4268 18.9804 18.3275L18.8535 18.0557ZM18.4648 18.2617L18.2843 18.0222C18.1852 18.0968 18.0968 18.1852 18.0222 18.2843L18.2617 18.4648L18.5013 18.6454C18.5423 18.591 18.591 18.5423 18.6454 18.5013L18.4648 18.2617ZM18.2617 18.4648L18.0221 18.2843C17.9336 18.4018 17.8724 18.5369 17.7838 18.7266L18.0557 18.8535L18.3275 18.9804C18.4269 18.7675 18.4595 18.7008 18.5013 18.6454L18.2617 18.4648ZM18.0557 18.8535L17.7838 18.7266L17.1881 20.003L17.46 20.1299L17.7318 20.2568L18.3275 18.9804L18.0557 18.8535ZM17.46 20.1299L17.1881 20.003C16.9472 20.5192 16.7748 20.8877 16.6229 21.1488C16.4678 21.4153 16.3636 21.515 16.2844 21.5536L16.416 21.8232L16.5476 22.0928C16.7966 21.9713 16.9759 21.7351 17.1415 21.4505C17.3104 21.1604 17.4959 20.7622 17.7318 20.2568L17.46 20.1299ZM16.416 21.8232L16.2845 21.5536C16.0823 21.6522 15.8456 21.6522 15.6431 21.5536L15.5117 21.8232L15.3803 22.0929C15.7485 22.2723 16.1792 22.2725 16.5475 22.0929L16.416 21.8232ZM15.5117 21.8232L15.6432 21.5536C15.564 21.515 15.4599 21.4154 15.3048 21.1489C15.1529 20.8878 14.9806 20.5194 14.7396 20.003L14.4678 20.1299L14.1959 20.2568C14.4319 20.7623 14.6174 21.1605 14.7862 21.4506C14.9518 21.7352 15.1311 21.9714 15.3802 22.0929L15.5117 21.8232ZM14.4678 20.1299L14.7396 20.003L14.1439 18.7266L13.8721 18.8535L13.6002 18.9804L14.1959 20.2568L14.4678 20.1299ZM13.8721 18.8535L14.1439 18.7266C14.0554 18.5369 13.9941 18.4018 13.9057 18.2844L13.666 18.4648L13.4263 18.6453C13.4681 18.7008 13.501 18.7678 13.6002 18.9804L13.8721 18.8535ZM13.666 18.4648L13.9056 18.2843C13.8309 18.1852 13.7425 18.0968 13.6435 18.0222L13.4629 18.2617L13.2823 18.5013C13.3367 18.5423 13.3855 18.591 13.4264 18.6454L13.666 18.4648ZM13.4629 18.2617L13.6435 18.0222C13.5259 17.9336 13.3908 17.8723 13.2011 17.7838L13.0742 18.0557L12.9473 18.3275C13.1603 18.4269 13.2269 18.4595 13.2823 18.5013L13.4629 18.2617ZM13.0742 18.0557L13.201 17.7838L11.9237 17.1881L11.7969 17.46L11.6701 17.7318L12.9474 18.3276L13.0742 18.0557ZM11.7969 17.46L11.9237 17.1881C11.4076 16.9472 11.0394 16.7749 10.7786 16.623C10.5124 16.468 10.4128 16.3638 10.3741 16.2844L10.1045 16.416L9.83489 16.5476C9.95633 16.7964 10.1922 16.9758 10.4767 17.1415C10.7666 17.3104 11.1645 17.4959 11.67 17.7318L11.7969 17.46ZM10.1045 16.416L10.3741 16.2845C10.2755 16.0822 10.2755 15.8456 10.3741 15.6432L10.1045 15.5117L9.83484 15.3802C9.65525 15.7486 9.65524 16.1791 9.83484 16.5475L10.1045 16.416ZM10.1045 15.5117L10.3741 15.6432C10.4128 15.5639 10.5123 15.4597 10.7785 15.3047C11.0393 15.1529 11.4076 14.9805 11.9237 14.7396L11.7969 14.4678L11.67 14.1959C11.1645 14.4318 10.7666 14.6174 10.4766 14.7862C10.1921 14.9519 9.95626 15.1313 9.83485 15.3802L10.1045 15.5117ZM11.7969 14.4678L11.9237 14.7397L13.201 14.144L13.0742 13.8721L12.9474 13.6002L11.6701 14.1959L11.7969 14.4678ZM13.0742 13.8721L13.2011 14.1439C13.3908 14.0554 13.5259 13.9941 13.6434 13.9056L13.4629 13.666L13.2824 13.4264C13.2269 13.4682 13.1602 13.5009 12.9473 13.6002L13.0742 13.8721ZM13.4629 13.666L13.6435 13.9056C13.7425 13.8309 13.8309 13.7425 13.9056 13.6435L13.666 13.4629L13.4264 13.2823C13.3855 13.3367 13.3367 13.3854 13.2823 13.4265L13.4629 13.666ZM13.666 13.4629L13.9056 13.6434C13.9941 13.5259 14.0554 13.3908 14.1439 13.2011L13.8721 13.0742L13.6002 12.9473C13.5009 13.1601 13.4682 13.2269 13.4264 13.2824L13.666 13.4629ZM13.8721 13.0742L14.144 13.201L14.7397 11.9237L14.4678 11.7969L14.1959 11.6701L13.6002 12.9474L13.8721 13.0742ZM14.4678 11.7969L14.7396 11.9237C14.9805 11.4076 15.1529 11.0393 15.3047 10.7785C15.4597 10.5123 15.5639 10.4128 15.6432 10.3741L15.5117 10.1045L15.3802 9.83484C15.1313 9.95623 14.9519 10.1921 14.7862 10.4766C14.6174 10.7666 14.4318 11.1645 14.1959 11.67L14.4678 11.7969Z" fill="black"/>
<path id="sk-duotone-line--subtract" opacity="0.6" d="M15.512 10.1047L15.3806 9.83505L15.3805 9.83508L15.512 10.1047ZM16.4163 10.1047L16.548 9.83522L16.5477 9.83508L16.4163 10.1047ZM17.4602 11.7971L17.7321 11.6703L17.7321 11.6702L17.4602 11.7971ZM18.0559 13.0745L17.784 13.2013L17.7841 13.2013L18.0559 13.0745ZM18.262 13.4631L18.0224 13.6437L18.0225 13.6438L18.262 13.4631ZM18.4651 13.6663L18.2845 13.9058L18.2848 13.906L18.4651 13.6663ZM18.8538 13.8723L18.9806 13.6005L18.9806 13.6005L18.8538 13.8723ZM20.1301 14.468L20.0033 14.7399L20.0033 14.7399L20.1301 14.468ZM21.8235 15.512L22.0932 15.3806L22.0931 15.3805L21.8235 15.512ZM21.8235 16.4163L22.0931 16.5478L22.0931 16.5477L21.8235 16.4163ZM20.1301 17.4602L20.0033 17.1884L20.0033 17.1884L20.1301 17.4602ZM18.8538 18.0559L18.9806 18.3278L18.9806 18.3278L18.8538 18.0559ZM18.4651 18.262L18.2846 18.0223L18.2845 18.0224L18.4651 18.262ZM18.262 18.4651L18.0224 18.2845L18.0224 18.2846L18.262 18.4651ZM18.0559 18.8538L18.3278 18.9806L18.3278 18.9806L18.0559 18.8538ZM17.4602 20.1301L17.1884 20.0033L17.1884 20.0033L17.4602 20.1301ZM16.4163 21.8235L16.5477 22.0931L16.5479 22.0931L16.4163 21.8235ZM15.512 21.8235L15.3805 22.0931L15.3806 22.0932L15.512 21.8235ZM14.468 20.1301L14.7399 20.0033L14.7399 20.0033L14.468 20.1301ZM13.8723 18.8538L13.6005 18.9806L13.6005 18.9806L13.8723 18.8538ZM13.6663 18.4651L13.906 18.2847L13.9058 18.2845L13.6663 18.4651ZM13.4631 18.262L13.6438 18.0225L13.6437 18.0224L13.4631 18.262ZM13.0745 18.0559L13.2013 17.7841L13.2013 17.784L13.0745 18.0559ZM11.7971 17.4602L11.6702 17.7321L11.6703 17.7321L11.7971 17.4602ZM10.1047 16.4163L9.83508 16.5477L9.83521 16.548L10.1047 16.4163ZM10.1047 15.512L9.83508 15.3805L9.83507 15.3805L10.1047 15.512ZM11.7971 14.468L11.6703 14.1961L11.6702 14.1962L11.7971 14.468ZM13.0745 13.8723L13.2013 14.1442L13.2013 14.1442L13.0745 13.8723ZM13.4631 13.6663L13.6437 13.9059L13.6437 13.9058L13.4631 13.6663ZM13.6663 13.4631L13.9058 13.6437L13.9059 13.6436L13.6663 13.4631ZM13.8723 13.0745L14.1442 13.2013L14.1442 13.2013L13.8723 13.0745ZM14.468 11.7971L14.1962 11.6702L14.1961 11.6703L14.468 11.7971ZM15.512 10.1047L15.6434 10.3744C15.8458 10.2758 16.0825 10.2758 16.2848 10.3744L16.4163 10.1047L16.5477 9.83508C16.1794 9.6555 15.7488 9.65564 15.3806 9.83505L15.512 10.1047ZM16.4163 10.1047L16.2845 10.3743C16.3639 10.4131 16.4682 10.5128 16.6233 10.7791C16.7752 11.0399 16.9476 11.4081 17.1884 11.924L17.4602 11.7971L17.7321 11.6702C17.4962 11.1649 17.3106 10.7671 17.1417 10.4771C16.976 10.1926 16.7966 9.95677 16.548 9.83522L16.4163 10.1047ZM17.4602 11.7971L17.1883 11.9239L17.784 13.2013L18.0559 13.0745L18.3278 12.9477L17.7321 11.6703L17.4602 11.7971ZM18.0559 13.0745L17.7841 13.2013C17.8725 13.3909 17.9338 13.5262 18.0224 13.6437L18.262 13.4631L18.5015 13.2826C18.4598 13.2271 18.4271 13.1604 18.3278 12.9476L18.0559 13.0745ZM18.262 13.4631L18.0225 13.6438C18.097 13.7426 18.1855 13.8312 18.2845 13.9058L18.4651 13.6663L18.6457 13.4267C18.5914 13.3858 18.5425 13.3369 18.5015 13.2825L18.262 13.4631ZM18.4651 13.6663L18.2848 13.906C18.402 13.9942 18.5373 14.0557 18.7269 14.1442L18.8538 13.8723L18.9806 13.6005C18.7684 13.5014 18.7009 13.4683 18.6454 13.4265L18.4651 13.6663ZM18.8538 13.8723L18.7269 14.1442L20.0033 14.7399L20.1301 14.468L20.257 14.1962L18.9806 13.6005L18.8538 13.8723ZM20.1301 14.468L20.0033 14.7399C20.5195 14.9808 20.888 15.1531 21.1491 15.305C21.4157 15.4601 21.5152 15.5643 21.5538 15.6434L21.8235 15.512L22.0931 15.3805C21.9717 15.1314 21.7354 14.952 21.4508 14.7864C21.1606 14.6176 20.7624 14.432 20.257 14.1962L20.1301 14.468ZM21.8235 15.512L21.5538 15.6433C21.6524 15.8458 21.6524 16.0826 21.5538 16.2848L21.8235 16.4163L22.0931 16.5477C22.2727 16.1794 22.2724 15.7487 22.0932 15.3806L21.8235 15.512ZM21.8235 16.4163L21.5539 16.2847C21.5152 16.3639 21.4156 16.4681 21.149 16.6232C20.888 16.7751 20.5195 16.9474 20.0033 17.1884L20.1301 17.4602L20.257 17.7321C20.7624 17.4962 21.1606 17.3106 21.4508 17.1418C21.7354 16.9762 21.9716 16.7968 22.0931 16.5478L21.8235 16.4163ZM20.1301 17.4602L20.0033 17.1884L18.7269 17.7841L18.8538 18.0559L18.9806 18.3278L20.257 17.7321L20.1301 17.4602ZM18.8538 18.0559L18.7269 17.7841C18.5372 17.8726 18.402 17.9339 18.2846 18.0223L18.4651 18.262L18.6455 18.5016C18.701 18.4598 18.768 18.427 18.9806 18.3278L18.8538 18.0559ZM18.4651 18.262L18.2845 18.0224C18.1855 18.0971 18.0971 18.1855 18.0224 18.2845L18.262 18.4651L18.5015 18.6457C18.5426 18.5912 18.5912 18.5426 18.6457 18.5015L18.4651 18.262ZM18.262 18.4651L18.0224 18.2846C17.9338 18.4021 17.8726 18.5371 17.7841 18.7269L18.0559 18.8538L18.3278 18.9806C18.4271 18.7678 18.4598 18.7011 18.5016 18.6456L18.262 18.4651ZM18.0559 18.8538L17.7841 18.7269L17.1884 20.0033L17.4602 20.1301L17.7321 20.257L18.3278 18.9806L18.0559 18.8538ZM17.4602 20.1301L17.1884 20.0033C16.9475 20.5194 16.7751 20.8879 16.6232 21.1489C16.4681 21.4155 16.3639 21.5152 16.2846 21.5539L16.4163 21.8235L16.5479 22.0931C16.7968 21.9715 16.9762 21.7353 17.1418 21.4507C17.3106 21.1605 17.4962 20.7624 17.7321 20.257L17.4602 20.1301ZM16.4163 21.8235L16.2848 21.5538C16.0827 21.6524 15.8458 21.6523 15.6433 21.5538L15.512 21.8235L15.3806 22.0932C15.7487 22.2724 16.1794 22.2727 16.5477 22.0931L16.4163 21.8235ZM15.512 21.8235L15.6434 21.5538C15.5643 21.5152 15.4601 21.4157 15.305 21.1491C15.1531 20.888 14.9808 20.5195 14.7399 20.0033L14.468 20.1301L14.1962 20.257C14.4321 20.7624 14.6176 21.1606 14.7864 21.4508C14.952 21.7354 15.1314 21.9717 15.3805 22.0931L15.512 21.8235ZM14.468 20.1301L14.7399 20.0033L14.1442 18.7269L13.8723 18.8538L13.6005 18.9806L14.1962 20.257L14.468 20.1301ZM13.8723 18.8538L14.1442 18.7269C14.0557 18.5373 13.9942 18.402 13.906 18.2847L13.6663 18.4651L13.4265 18.6454C13.4683 18.7009 13.5014 18.7683 13.6005 18.9806L13.8723 18.8538ZM13.6663 18.4651L13.9058 18.2845C13.8312 18.1855 13.7426 18.097 13.6438 18.0225L13.4631 18.262L13.2825 18.5015C13.3369 18.5425 13.3858 18.5914 13.4267 18.6457L13.6663 18.4651ZM13.4631 18.262L13.6437 18.0224C13.5262 17.9338 13.3908 17.8725 13.2013 17.7841L13.0745 18.0559L12.9476 18.3278C13.1604 18.4271 13.2272 18.4598 13.2826 18.5015L13.4631 18.262ZM13.0745 18.0559L13.2013 17.784L11.9239 17.1883L11.7971 17.4602L11.6703 17.7321L12.9477 18.3278L13.0745 18.0559ZM11.7971 17.4602L11.924 17.1884C11.408 16.9476 11.0398 16.7752 10.7791 16.6233C10.5128 16.4682 10.4131 16.3639 10.3743 16.2845L10.1047 16.4163L9.83521 16.548C9.95673 16.7966 10.1925 16.976 10.4771 17.1417C10.7671 17.3106 11.1649 17.4962 11.6702 17.7321L11.7971 17.4602ZM10.1047 16.4163L10.3744 16.2848C10.2757 16.0824 10.2757 15.8458 10.3744 15.6434L10.1047 15.512L9.83507 15.3805C9.65553 15.7488 9.65549 16.1794 9.83508 16.5477L10.1047 16.4163ZM10.1047 15.512L10.3744 15.6434C10.413 15.5642 10.5125 15.46 10.7788 15.305C11.0395 15.1531 11.4078 14.9808 11.924 14.7399L11.7971 14.468L11.6702 14.1962C11.1647 14.4321 10.7668 14.6176 10.4768 14.7865C10.1923 14.9521 9.95647 15.1315 9.83508 15.3805L10.1047 15.512ZM11.7971 14.468L11.9239 14.7399L13.2013 14.1442L13.0745 13.8723L12.9477 13.6004L11.6703 14.1961L11.7971 14.468ZM13.0745 13.8723L13.2013 14.1442C13.391 14.0557 13.5262 13.9944 13.6437 13.9059L13.4631 13.6663L13.2826 13.4267C13.2272 13.4684 13.1604 13.5011 12.9476 13.6005L13.0745 13.8723ZM13.4631 13.6663L13.6437 13.9058C13.7427 13.8312 13.8312 13.7428 13.9058 13.6437L13.6663 13.4631L13.4267 13.2826C13.3857 13.3369 13.337 13.3857 13.2825 13.4267L13.4631 13.6663ZM13.6663 13.4631L13.9059 13.6436C13.9944 13.5262 14.0556 13.391 14.1442 13.2013L13.8723 13.0745L13.6005 12.9476C13.5012 13.1604 13.4684 13.2272 13.4266 13.2826L13.6663 13.4631ZM13.8723 13.0745L14.1442 13.2013L14.7399 11.9239L14.468 11.7971L14.1961 11.6703L13.6004 12.9477L13.8723 13.0745ZM14.468 11.7971L14.7399 11.924C14.9808 11.4078 15.1531 11.0396 15.305 10.7788C15.46 10.5125 15.5642 10.413 15.6434 10.3744L15.512 10.1047L15.3805 9.83508C15.1315 9.95647 14.9521 10.1923 14.7865 10.4768C14.6176 10.7668 14.4321 11.1648 14.1962 11.6702L14.468 11.7971Z" fill="black"/>
<path id="sk-bg-no-duo--reverse--subtract" opacity="0.9" d="M15.5118 10.1045C15.7971 9.96551 16.1308 9.96544 16.4161 10.1045C16.7442 10.2648 16.9834 10.7755 17.4601 11.7969L18.0558 13.0743C18.1497 13.2756 18.1966 13.3765 18.2618 13.4629C18.3196 13.5396 18.3883 13.6083 18.4649 13.6661C18.5514 13.7311 18.6525 13.7783 18.8536 13.8721L20.13 14.4678C21.1518 14.9447 21.6633 15.1835 21.8233 15.5118C21.9624 15.7971 21.9624 16.1308 21.8233 16.4161C21.6633 16.7443 21.1518 16.9831 20.13 17.46L18.8536 18.0557C18.6524 18.1496 18.5514 18.1967 18.4649 18.2618C18.3882 18.3196 18.3197 18.3882 18.2618 18.4649C18.1967 18.5514 18.1497 18.6523 18.0558 18.8536L17.4601 20.1299C16.9833 21.1516 16.7443 21.6631 16.4161 21.8233C16.1309 21.9624 15.7971 21.9623 15.5118 21.8233C15.1836 21.6632 14.9448 21.1518 14.4679 20.1299L13.8722 18.8536C13.7783 18.6525 13.7312 18.5513 13.6661 18.4649C13.6083 18.3882 13.5397 18.3196 13.463 18.2618C13.3765 18.1966 13.2756 18.1496 13.0743 18.0557L11.797 17.46C10.7755 16.9833 10.2648 16.7442 10.1046 16.4161C9.96546 16.1307 9.96546 15.7971 10.1046 15.5118C10.2647 15.1835 10.7753 14.9447 11.797 14.4678L13.0743 13.8721C13.2756 13.7782 13.3765 13.7312 13.463 13.6661C13.5397 13.6082 13.6083 13.5397 13.6661 13.4629C13.7312 13.3765 13.7782 13.2755 13.8722 13.0743L14.4679 11.7969C14.9447 10.7752 15.1836 10.2646 15.5118 10.1045Z" fill="white"/>
</g>
</g>
</svg>
