<svg width="32" height="32" viewBox="0 0 32 32" fill="none" xmlns="http://www.w3.org/2000/svg">
<path opacity="0.8" d="M16 28C13.6266 28 11.3065 27.2962 9.33316 25.9776C7.35977 24.6591 5.8217 22.7849 4.91345 20.5922C4.0052 18.3995 3.76756 15.9867 4.23058 13.6589C4.6936 11.3312 5.83649 9.19295 7.51472 7.51472C9.19295 5.83649 11.3311 4.6936 13.6589 4.23058C15.9867 3.76756 18.3995 4.0052 20.5922 4.91345C22.7849 5.8217 24.6591 7.35977 25.9776 9.33316C27.2962 11.3066 28 13.6266 28 16C28 19.1826 26.7357 22.2348 24.4853 24.4853C22.2348 26.7357 19.1826 28 16 28Z" fill="black"/>
<path d="M16 28C13.6266 28 11.3065 27.2962 9.33316 25.9776C7.35977 24.6591 5.8217 22.7849 4.91345 20.5922C4.00519 18.3995 3.76755 15.9867 4.23058 13.6589C4.6936 11.3312 5.83649 9.19295 7.51472 7.51472C9.19295 5.83649 11.3311 4.6936 13.6589 4.23058C15.9867 3.76756 18.3995 4.0052 20.5922 4.91345C22.7849 5.8217 24.6591 7.35977 25.9776 9.33316C27.2962 11.3066 28 13.6266 28 16C28 19.1826 26.7357 22.2349 24.4853 24.4853C22.2348 26.7357 19.1826 28 16 28Z" stroke="black" stroke-width="0.6" stroke-linecap="round" stroke-linejoin="round"/>
<path d="M20.5 14L16.6788 10.1788C16.4412 9.94121 16.3224 9.82241 16.1854 9.77789C16.0649 9.73874 15.9351 9.73874 15.8146 9.77789C15.6776 9.82241 15.5588 9.94121 15.3212 10.1788L11.5 14" stroke="white" stroke-width="0.6" stroke-linecap="round" stroke-linejoin="round"/>
<path d="M20.5 21.5L16.6788 17.6788C16.4412 17.4412 16.3224 17.3224 16.1854 17.2779C16.0649 17.2387 15.9351 17.2387 15.8146 17.2779C15.6776 17.3224 15.5588 17.4412 15.3212 17.6788L11.5 21.5" stroke="white" stroke-width="0.6" stroke-linecap="round" stroke-linejoin="round"/>
</svg>
