<svg width="32" height="32" viewBox="0 0 32 32" fill="none" xmlns="http://www.w3.org/2000/svg">
<path opacity="0.8" d="M16 28C18.3734 28 20.6935 27.2962 22.6668 25.9776C24.6402 24.6591 26.1783 22.7849 27.0866 20.5922C27.9948 18.3995 28.2324 15.9867 27.7694 13.6589C27.3064 11.3312 26.1635 9.19295 24.4853 7.51472C22.8071 5.83649 20.6689 4.6936 18.3411 4.23058C16.0133 3.76756 13.6005 4.0052 11.4078 4.91345C9.21509 5.8217 7.34094 7.35977 6.02236 9.33316C4.70379 11.3066 4 13.6266 4 16C4 19.1826 5.26428 22.2348 7.51472 24.4853C9.76515 26.7357 12.8174 28 16 28Z" fill="black"/>
<path d="M16 28C18.3734 28 20.6935 27.2962 22.6668 25.9776C24.6402 24.6591 26.1783 22.7849 27.0866 20.5922C27.9948 18.3995 28.2324 15.9867 27.7694 13.6589C27.3064 11.3312 26.1635 9.19295 24.4853 7.51472C22.8071 5.83649 20.6689 4.6936 18.3411 4.23058C16.0133 3.76756 13.6005 4.0052 11.4078 4.91345C9.21509 5.8217 7.34094 7.35977 6.02236 9.33316C4.70379 11.3066 4 13.6266 4 16C4 19.1826 5.26428 22.2349 7.51472 24.4853C9.76516 26.7357 12.8174 28 16 28Z" stroke="black" stroke-width="0.6" stroke-linecap="round" stroke-linejoin="round"/>
<path d="M11 18L15.3212 13.6788C15.5588 13.4412 15.6776 13.3224 15.8146 13.2779C15.9351 13.2387 16.0649 13.2387 16.1854 13.2779C16.3224 13.3224 16.4412 13.4412 16.6788 13.6788L21 18" stroke="white" stroke-width="0.6" stroke-linecap="round" stroke-linejoin="round"/>
</svg>
