<svg width="32" height="32" viewBox="0 0 32 32" fill="none" xmlns="http://www.w3.org/2000/svg">
<path opacity="0.8" d="M15.3212 22.8212L5.63882 13.1388C5.12477 12.6248 4.86774 12.3677 4.85038 12.1471C4.83531 11.9556 4.91281 11.7685 5.05886 11.6438C5.22718 11.5 5.59067 11.5 6.31765 11.5H11H21H25.6824C26.4093 11.5 26.7728 11.5 26.9411 11.6438C27.0872 11.7685 27.1647 11.9556 27.1496 12.1471C27.1323 12.3677 26.8752 12.6248 26.3612 13.1388L16.6788 22.8212C16.4412 23.0588 16.3224 23.1776 16.1854 23.2221C16.0649 23.2613 15.9351 23.2613 15.8146 23.2221C15.6776 23.1776 15.5588 23.0588 15.3212 22.8212Z" fill="black"/>
<path opacity="0.6" d="M15.5757 23.0757L5.02426 12.5243C4.64629 12.1463 4.91399 11.5 5.44853 11.5H11H21H26.5515C27.086 11.5 27.3537 12.1463 26.9757 12.5243L16.4243 23.0757C16.1899 23.3101 15.8101 23.3101 15.5757 23.0757Z" stroke="black" stroke-width="0.6" stroke-linecap="round" stroke-linejoin="round"/>
<path opacity="0.1" d="M28 11L16.9192 22.0808C16.4116 22.5884 15.5884 22.5884 15.0808 22.0808L4 11" stroke="black" stroke-width="0.6" stroke-linecap="round" stroke-linejoin="round"/>
</svg>
